# File created by Blade
# Date/Time:  Wed Sep 24 19:10:19 2014
# Frame Rate: 120.000 fps
#------------------------------------------------------
:FULLY-SPECIFIED
:DEGREES
2101
root -9.174594 33.314494 -5.245364 22.775024 34.310955 24.796680
Spine 2.058853 -3.399759 -6.771655
Head -10.816592 11.727889 -2.658345
LeftShoulder 1.579459 3.377631 15.064396
LeftArm 44.720285 -6.553589 -81.506743
LeftForeArm 10.296613 0.000000 64.834844
LeftHand -28.323157 0.000000 33.495845
LeftHandThumb1 -26.253704 0.000000 33.147579
RightShoulder -13.115198 13.835428 -19.958835
RightArm -10.471910 -26.291432 79.302567
RightForeArm -22.646992 -0.000000 32.988805
RightHand -4.390306 -0.000000 9.316786
RightHandThumb1 -24.326973 -0.000000 -32.862282
LeftUpLeg -88.958086 32.498352 -3.704886
LeftLeg 139.779981 -0.000000 -0.000000
LeftFoot 43.430511 -0.378940 -17.536486
LeftToeBase 9.315117 -0.000000 -0.000000
RightUpLeg -21.969278 -18.990151 -9.023318
RightLeg 24.046819 -0.000000 -0.000000
RightFoot -12.975065 -33.776544 -4.097505
RightToeBase 0.105066 -0.000000 -0.000000
2102
root -9.166010 33.326663 -5.247273 22.814416 34.254195 24.859485
Spine 2.038230 -3.421565 -6.784089
Head -10.792112 11.801667 -2.722369
LeftShoulder 1.639869 3.244226 15.074400
LeftArm 44.623524 -6.536524 -81.632618
LeftForeArm 10.437095 0.000000 64.683540
LeftHand -28.344078 -0.000000 33.711770
LeftHandThumb1 -26.253704 0.000000 33.147579
RightShoulder -13.115271 13.785971 -19.966233
RightArm -10.609568 -26.045731 79.392015
RightForeArm -22.751986 0.000000 32.842432
RightHand -4.274116 -0.000000 9.678799
RightHandThumb1 -24.326973 -0.000000 -32.862282
LeftUpLeg -88.939249 32.479115 -3.765590
LeftLeg 139.178027 -0.000000 -0.000000
LeftFoot 43.252661 -0.374018 -17.391469
LeftToeBase 8.326741 -0.000000 -0.000000
RightUpLeg -21.911220 -19.016212 -9.098173
RightLeg 23.899003 -0.000000 -0.000000
RightFoot -12.878804 -33.725543 -4.174325
RightToeBase 0.081128 -0.000000 -0.000000
2103
root -9.160229 33.338060 -5.248638 22.848125 34.201308 24.904333
Spine 2.017536 -3.449376 -6.782160
Head -10.775037 11.869614 -2.790720
LeftShoulder 1.685102 3.135180 15.078783
LeftArm 44.527171 -6.521461 -81.745793
LeftForeArm 10.526292 -0.000000 64.589680
LeftHand -28.254615 -0.000000 33.748267
LeftHandThumb1 -26.253704 0.000000 33.147579
RightShoulder -13.117734 13.714791 -19.971482
RightArm -10.729679 -26.002692 79.479495
RightForeArm -22.784089 -0.000000 32.724736
RightHand -4.230360 -0.000000 9.713178
RightHandThumb1 -24.326973 -0.000000 -32.862282
LeftUpLeg -88.932687 32.476026 -3.825011
LeftLeg 138.446237 -0.000000 -0.000000
LeftFoot 42.986241 -0.251662 -17.323142
LeftToeBase 9.165064 -0.000000 -0.000000
RightUpLeg -21.854243 -19.013147 -9.158227
RightLeg 23.743902 -0.000000 -0.000000
RightFoot -12.798805 -33.686065 -4.201160
RightToeBase 0.095288 -0.000000 -0.000000
2104
root -9.154660 33.347443 -5.248936 22.865357 34.134045 24.927943
Spine 2.000956 -3.449907 -6.766800
Head -10.751932 11.957070 -2.858582
LeftShoulder 1.710620 3.071397 15.055669
LeftArm 44.513616 -6.472152 -81.799455
LeftForeArm 10.621169 -0.000000 64.471486
LeftHand -28.252549 -0.000000 33.939344
LeftHandThumb1 -26.253704 0.000000 33.147579
RightShoulder -13.114790 13.654479 -19.969191
RightArm -10.859431 -26.039038 79.558559
RightForeArm -22.726549 -0.000000 32.611908
RightHand -4.329853 -0.000000 9.625249
RightHandThumb1 -24.326973 -0.000000 -32.862282
LeftUpLeg -88.954979 32.507160 -3.909419
LeftLeg 137.636909 -0.000000 -0.000000
LeftFoot 42.623994 -0.175052 -17.041111
LeftToeBase 9.061720 -0.000000 -0.000000
RightUpLeg -21.798985 -18.969040 -9.213578
RightLeg 23.608034 -0.000000 -0.000000
RightFoot -12.742177 -33.651372 -4.209837
RightToeBase 0.110506 -0.000000 -0.000000
2105
root -9.150023 33.354608 -5.248887 22.877242 34.075135 24.945887
Spine 1.996369 -3.477791 -6.749243
Head -10.764753 12.070456 -2.920303
LeftShoulder 1.704237 3.041036 15.033429
LeftArm 44.527340 -6.416874 -81.829634
LeftForeArm 10.708422 0.000000 64.382672
LeftHand -28.221962 -0.000000 34.079639
LeftHandThumb1 -26.253704 0.000000 33.147579
RightShoulder -13.125962 13.579890 -19.956550
RightArm -10.948230 -26.331314 79.604892
RightForeArm -22.498543 -0.000000 32.527128
RightHand -4.425236 -0.000000 9.561781
RightHandThumb1 -24.326973 -0.000000 -32.862282
LeftUpLeg -88.967822 32.544238 -3.971260
LeftLeg 136.757527 -0.000000 -0.000000
LeftFoot 42.316509 0.080712 -16.971861
LeftToeBase 10.241989 -0.000000 -0.000000
RightUpLeg -21.749439 -18.905962 -9.262417
RightLeg 23.488731 -0.000000 -0.000000
RightFoot -12.676107 -33.660354 -4.221065
RightToeBase 0.078527 -0.000000 -0.000000
2106
root -9.145245 33.360559 -5.247751 22.876685 34.010556 24.952245
Spine 1.992541 -3.504952 -6.710890
Head -10.773151 12.171252 -3.020049
LeftShoulder 1.690914 3.044269 14.996205
LeftArm 44.547966 -6.360747 -81.839443
LeftForeArm 10.771310 0.000000 64.328247
LeftHand -28.228648 -0.000000 34.278206
LeftHandThumb1 -26.253704 0.000000 33.147579
RightShoulder -13.096936 13.556679 -19.966383
RightArm -11.046551 -26.306187 79.683750
RightForeArm -22.568996 0.000000 32.299498
RightHand -4.247972 0.000000 9.699024
RightHandThumb1 -24.326973 -0.000000 -32.862282
LeftUpLeg -88.956766 32.620309 -3.985338
LeftLeg 135.848698 -0.000000 -0.000000
LeftFoot 42.127426 0.312374 -16.830088
LeftToeBase 9.365504 -0.000000 -0.000000
RightUpLeg -21.697858 -18.843117 -9.306329
RightLeg 23.379931 -0.000000 -0.000000
RightFoot -12.631306 -33.643768 -4.234641
RightToeBase 0.080225 -0.000000 -0.000000
2107
root -9.140638 33.364737 -5.246491 22.851106 33.933933 24.940793
Spine 2.012453 -3.520718 -6.658504
Head -10.801272 12.276337 -3.109191
LeftShoulder 1.682885 3.038044 14.960504
LeftArm 44.553793 -6.366106 -81.928292
LeftForeArm 10.920709 -0.000000 64.299044
LeftHand -28.257366 -0.000000 34.345284
LeftHandThumb1 -26.253704 0.000000 33.147579
RightShoulder -13.108294 13.503331 -19.965136
RightArm -11.090490 -26.595123 79.722736
RightForeArm -22.406331 -0.000000 32.144528
RightHand -4.408138 -0.000000 9.631534
RightHandThumb1 -24.326973 -0.000000 -32.862282
LeftUpLeg -88.942113 32.698057 -3.995588
LeftLeg 134.923552 -0.000000 -0.000000
LeftFoot 42.166261 0.591220 -16.686493
LeftToeBase 8.369098 -0.000000 -0.000000
RightUpLeg -21.650773 -18.780596 -9.338367
RightLeg 23.299239 -0.000000 -0.000000
RightFoot -12.613758 -33.606429 -4.228193
RightToeBase 0.079705 -0.000000 -0.000000
2108
root -9.138156 33.367799 -5.249833 22.876011 33.860574 24.946070
Spine 1.990463 -3.569367 -6.625050
Head -10.822295 12.390731 -3.168531
LeftShoulder 1.669145 2.996751 14.956327
LeftArm 44.497893 -6.369029 -82.002928
LeftForeArm 11.001854 -0.000000 64.292853
LeftHand -28.285938 -0.000000 34.508377
LeftHandThumb1 -26.253704 0.000000 33.147579
RightShoulder -13.089648 13.475039 -19.962894
RightArm -11.120385 -26.761953 79.754911
RightForeArm -22.393116 0.000000 31.905713
RightHand -4.314535 -0.000000 9.790743
RightHandThumb1 -24.326973 -0.000000 -32.862282
LeftUpLeg -88.892411 32.749001 -3.971392
LeftLeg 134.111763 -0.000000 -0.000000
LeftFoot 41.793553 0.621430 -16.690734
LeftToeBase 8.225850 -0.000000 -0.000000
RightUpLeg -21.667832 -18.698671 -9.375790
RightLeg 23.251080 -0.000000 -0.000000
RightFoot -12.598486 -33.601439 -4.197403
RightToeBase 0.045070 -0.000000 -0.000000
2109
root -9.133184 33.369560 -5.251419 22.882204 33.797665 24.966361
Spine 1.991388 -3.599265 -6.606200
Head -10.837858 12.462406 -3.199726
LeftShoulder 1.669120 3.026543 14.945773
LeftArm 44.515354 -6.369911 -82.059440
LeftForeArm 11.034635 -0.000000 64.290050
LeftHand -28.221446 0.000000 34.492616
LeftHandThumb1 -26.253704 0.000000 33.147579
RightShoulder -13.105790 13.414140 -19.952355
RightArm -11.081413 -26.858974 79.765956
RightForeArm -22.517424 -0.000000 31.601529
RightHand -4.206433 -0.000000 9.957930
RightHandThumb1 -24.326973 -0.000000 -32.862282
LeftUpLeg -88.817961 32.795298 -3.944430
LeftLeg 133.334051 -0.000000 -0.000000
LeftFoot 41.589898 0.688403 -16.601740
LeftToeBase 8.074417 -0.000000 -0.000000
RightUpLeg -21.653816 -18.660552 -9.425997
RightLeg 23.209450 -0.000000 -0.000000
RightFoot -12.583073 -33.573964 -4.214304
RightToeBase 0.066877 -0.000000 -0.000000
2110
root -9.129568 33.369769 -5.255013 22.869849 33.720556 24.950859
Spine 2.002101 -3.622470 -6.564865
Head -10.859188 12.530299 -3.211051
LeftShoulder 1.630112 3.082552 14.956147
LeftArm 44.585337 -6.387359 -82.242681
LeftForeArm 11.157966 0.000000 64.272651
LeftHand -28.198294 -0.000000 34.466557
LeftHandThumb1 -26.253704 0.000000 33.147579
RightShoulder -13.093666 13.428099 -19.918728
RightArm -11.137906 -27.033911 79.768445
RightForeArm -22.512950 -0.000000 31.381939
RightHand -4.253906 -0.000000 9.952331
RightHandThumb1 -24.326973 -0.000000 -32.862282
LeftUpLeg -88.748233 32.855226 -3.901932
LeftLeg 132.646956 -0.000000 -0.000000
LeftFoot 41.566891 0.632937 -16.299294
LeftToeBase 5.968327 -0.000000 -0.000000
RightUpLeg -21.666052 -18.597356 -9.449003
RightLeg 23.195391 -0.000000 -0.000000
RightFoot -12.589596 -33.543246 -4.188813
RightToeBase 0.009823 -0.000000 -0.000000
